<svg width="41" height="40" viewBox="0 0 41 40" fill="none" xmlns="http://www.w3.org/2000/svg">
<path d="M40.4268 19.9933C40.4268 22.7974 40.3704 25.6095 40.4429 28.4135C40.5638 33.377 37.4455 37.2124 33.4731 38.9206C31.8777 39.6055 30.2017 39.9681 28.4693 39.9681C23.0466 39.9761 17.6158 40.0486 12.193 39.9439C8.10782 39.8633 4.74781 38.1551 2.3386 34.787C1.07356 33.0144 0.469238 31 0.469238 28.8164C0.469238 23.0391 0.469238 17.2699 0.469238 11.4926C0.469238 6.77889 2.76565 3.48334 6.84278 1.34002C8.61545 0.413403 10.5412 0.0185818 12.5476 0.0105242C17.8092 0.0105242 23.0788 -0.0217061 28.3404 0.0266393C32.4256 0.0588697 35.834 1.62204 38.3479 4.90953C39.7499 6.74666 40.4268 8.85775 40.4268 11.1783C40.4268 14.1113 40.4268 17.0523 40.4268 19.9933ZM3.44249 19.9933C3.44249 22.9505 3.44249 25.8995 3.44249 28.8567C3.44249 30.1781 3.74867 31.419 4.43357 32.539C6.23041 35.48 8.94581 36.9142 12.3139 36.9706C17.7205 37.0512 23.1352 37.0029 28.5499 36.9868C29.8794 36.9868 31.1686 36.7128 32.3692 36.1407C35.6406 34.5775 37.4696 32.0878 37.4535 28.349C37.4213 22.6282 37.4455 16.9073 37.4455 11.1864C37.4455 9.56682 36.9862 8.08422 36.0273 6.77889C34.1741 4.27298 31.6118 3.04017 28.5499 3.00794C23.1513 2.94348 17.7527 2.98377 12.3542 2.99183C11.2019 2.99183 10.09 3.2255 9.01027 3.62838C6.04508 4.73227 3.28939 7.52825 3.41831 11.6457C3.515 14.4336 3.44249 17.2135 3.44249 19.9933Z" fill="white"/>
<path d="M20.4923 28.5343C15.2952 28.5343 11.1052 24.3927 11.0972 19.2359C11.0891 14.1596 15.3113 10.0019 20.4762 10.0019C25.6572 9.99385 29.8633 14.1435 29.8714 19.2601C29.8714 24.3686 25.6734 28.5263 20.4923 28.5343ZM20.4923 25.553C24.0296 25.553 26.8981 22.7248 26.89 19.2439C26.882 15.7953 24.0135 12.9751 20.4923 12.9751C16.955 12.9751 14.0704 15.7872 14.0704 19.2601C14.0785 22.7409 16.955 25.5611 20.4923 25.553Z" fill="white"/>
<path d="M30.9591 7.18176C32.0469 7.18176 32.9332 8.10838 32.9332 9.2445C32.9252 10.3806 32.0308 11.2992 30.943 11.2911C29.8714 11.2831 28.9931 10.3645 28.9931 9.25256C28.985 8.11644 29.8714 7.18176 30.9591 7.18176Z" fill="white"/>
</svg>
