<svg width="274" height="53" viewBox="0 0 274 53" fill="none" xmlns="http://www.w3.org/2000/svg">
<path fill-rule="evenodd" clip-rule="evenodd" d="M15.7677 0.0724089C14.0525 0.340823 11.8065 1.19886 10.9952 1.89703C10.2728 2.51788 9.57187 3.251 9.50293 3.4577C9.46309 3.57666 9.38189 3.67407 9.32214 3.67407C8.78743 3.67407 7.38478 7.7553 7.35721 9.39106C7.34801 9.91302 7.30282 10.3175 7.25609 10.29C7.20936 10.2632 7.17182 10.4781 7.17259 10.7681C7.17335 11.0581 7.16799 12.0626 7.16186 12.9994L7.1496 14.7036H3.57442H0V16.2523V17.8011H3.57442H7.14884L7.18101 33.1364L7.21319 48.4717L9.03257 48.5066L10.852 48.5408V33.1714V17.8011H16.5974H22.3428V16.2523V14.7036H16.5836H10.8244L10.8857 11.9458C10.9546 8.84159 11.068 8.22967 11.8815 6.57234C13.4167 3.44283 17.5741 2.35579 21.2642 4.11795C21.8226 4.38488 22.3505 4.5953 22.4378 4.58637C22.5244 4.57745 22.5696 4.61091 22.5374 4.66073C22.4447 4.80646 23.1119 5.10759 23.213 4.96557C24.1698 3.62797 24.8953 2.51862 24.8915 2.4004C24.8784 2.04797 22.0655 0.68136 20.4805 0.257548C19.6225 0.0285411 16.7659 -0.0837322 15.7677 0.0724089ZM69.4553 24.307V48.5342H71.3068H73.1584V24.307V0.0805889H71.3068H69.4553V24.307ZM82.6697 24.307V48.5342H84.4891H86.3085V24.307V0.0805889H84.4891H82.6697V24.307ZM110.127 13.8403C107.876 14.0894 105.88 14.6478 103.963 15.5653C103.244 15.9088 102.626 16.1906 102.589 16.1906C102.526 16.1906 101.941 16.5773 101.055 17.2055C100.405 17.6665 97.5443 20.5187 97.5443 20.7061C97.5443 20.7418 97.3351 21.0883 97.0785 21.4771C95.7931 23.4281 94.644 26.4491 94.3996 28.5206C94.1667 30.4909 94.2395 34.8614 94.5015 34.7038C94.5666 34.6644 94.5842 34.7655 94.5406 34.9328C94.3077 35.8324 95.8949 39.9531 97.1015 41.5836C97.3451 41.9123 97.5443 42.2231 97.5443 42.2736C97.5443 42.3651 98.2789 43.2566 99.0128 44.0551C99.2235 44.2849 99.6256 44.6269 99.9068 44.815C100.187 45.0031 100.647 45.3585 100.928 45.6039C101.208 45.8493 101.51 46.0508 101.598 46.0522C101.686 46.0545 101.758 46.1013 101.758 46.1571C101.758 46.3913 105.195 48.0687 105.958 48.2062C106.07 48.2263 106.392 48.3051 106.673 48.3817C109.309 49.094 114.534 49.2427 116.142 48.6501C116.332 48.5802 116.439 48.5988 116.483 48.7104C116.543 48.8635 120.451 52.0034 120.58 52.0034C120.613 52.0034 120.789 52.138 120.973 52.3024C121.822 53.0667 122.996 53.2318 123.466 52.654C123.791 52.2555 123.767 50.7737 123.402 48.6762C123.296 48.0702 123.255 47.7564 123.14 46.6753L123.054 45.8693L123.899 45.2046C124.774 44.5161 126.654 42.6268 126.654 42.4357C126.654 42.3762 126.767 42.2097 126.905 42.0662C129.261 39.6125 130.723 32.2159 129.738 27.7428C129.254 25.5472 127.735 21.7433 127.261 21.5396C127.208 21.5173 127.165 21.4191 127.165 21.3225C127.165 21.2266 127.108 21.147 127.037 21.147C126.967 21.147 126.909 21.0853 126.909 21.0102C126.909 20.6875 125.112 18.7997 123.399 17.3245C120.641 14.9489 114.554 13.3511 110.127 13.8403ZM219.602 14.0931C217.537 14.3474 215.482 14.9564 213.602 15.8709C213.145 16.0932 212.556 16.3668 212.293 16.4784C212.03 16.5907 211.815 16.7386 211.815 16.8078C211.815 16.8769 211.766 16.92 211.708 16.9029C211.473 16.8345 208.5 19.4205 207.854 20.2562C207.68 20.4815 207.479 20.7351 207.41 20.8184C207.339 20.9016 207.195 21.1173 207.09 21.2972C206.985 21.4771 206.606 22.1166 206.248 22.7181C205.324 24.2698 204.594 26.2052 204.336 27.7808C204.292 28.0514 204.236 28.3042 204.212 28.3429C204.188 28.3815 204.107 29.1065 204.033 29.9541C203.907 31.3958 203.94 32.2219 204.218 34.5907C204.436 36.457 205.667 39.6482 206.768 41.2015C207.015 41.5502 207.218 41.8647 207.218 41.8996C207.218 42.2238 209.539 44.6224 210.45 45.2388C210.643 45.3689 210.954 45.6143 211.142 45.7838C214.504 48.8078 223.237 50.0978 227.805 48.2457C228.034 48.1527 228.264 48.0687 228.317 48.0583C229.913 47.7579 233.76 44.847 235.385 42.7101L236.137 41.7234L236.171 45.1288L236.204 48.5342H238.054H239.903V31.433V14.3318H238.054H236.204L236.171 17.8941L236.137 21.4571L235.847 20.9306C235.687 20.6407 235.5 20.4035 235.432 20.4035C235.363 20.4035 235.307 20.3321 235.307 20.2444C235.307 20.0272 232.574 17.3386 231.859 16.8531C228.725 14.7222 223.695 13.5898 219.602 14.0931ZM132.4 14.4813C132.4 14.5638 132.624 15.2188 132.899 15.9371C133.966 18.7313 134.814 20.9983 135.1 21.8288C135.266 22.3062 135.443 22.7151 135.497 22.7382C135.55 22.7605 135.564 22.8244 135.529 22.8802C135.468 22.9761 135.993 24.4713 137.119 27.4053C138.251 30.3534 139.174 32.8613 139.222 33.1156C139.249 33.2628 139.329 33.4881 139.399 33.616C139.47 33.7446 139.644 34.2168 139.786 34.6651C139.929 35.1142 140.424 36.4801 140.886 37.7009C142.166 41.0751 142.804 42.8015 143.151 43.8246C143.325 44.3362 143.778 45.6046 144.158 46.6441L144.848 48.5334H146.908L148.968 48.5342L149.248 47.8657C149.401 47.4977 149.539 47.1214 149.553 47.0293C149.568 46.9363 149.625 46.7906 149.68 46.7051C149.735 46.6188 149.998 45.9221 150.265 45.1556C150.532 44.3897 150.925 43.3168 151.138 42.7718C151.352 42.2261 151.943 40.7204 152.451 39.4259C152.958 38.1307 153.375 37.0013 153.378 36.9165C153.38 36.831 153.417 36.7611 153.461 36.7611C153.505 36.7611 153.646 36.4406 153.774 36.0488C154.17 34.8406 154.334 34.3759 154.669 33.5104C154.847 33.0516 155.018 32.5498 155.048 32.3951C155.077 32.2405 155.329 31.5006 155.606 30.7512C155.883 30.0017 156.114 29.3451 156.119 29.2924C156.125 29.2396 156.282 28.7496 156.469 28.2038C156.656 27.6573 156.824 27.1428 156.842 27.0603C156.86 26.9778 156.935 26.7666 157.009 26.5926C157.084 26.4179 157.215 26.0275 157.301 25.7249C157.386 25.4223 157.536 24.9992 157.632 24.7843C157.729 24.5695 157.808 24.2929 157.808 24.1694C157.808 24.046 158.048 23.2378 158.342 22.3731L158.877 20.7998L159.942 23.9791C161.227 27.8135 161.607 29.0202 161.854 30.0389C161.957 30.4649 162.094 30.8129 162.159 30.8129C162.223 30.8129 162.276 30.9252 162.276 31.0627C162.276 31.4642 162.69 32.7959 162.815 32.7959C162.878 32.7959 162.894 32.8509 162.851 32.9178C162.809 32.9855 162.972 33.529 163.214 34.126C163.846 35.68 164.641 37.7262 165.222 39.2898C165.498 40.0326 165.796 40.7264 165.883 40.8312C165.978 40.9442 165.984 40.9881 165.899 40.939C165.765 40.8609 166.024 41.5673 167.968 46.5802L168.724 48.5297L170.766 48.5289L172.809 48.5282L173.411 46.827C174.245 44.4663 176.178 39.2623 176.404 38.7738C176.506 38.5515 176.554 38.3143 176.511 38.2467C176.468 38.1798 176.494 38.1247 176.568 38.1247C176.643 38.1247 176.703 38.0363 176.703 37.9284C176.703 37.7388 177.989 34.106 178.234 33.6011C178.505 33.0449 180.006 28.9065 180.032 28.6448C180.039 28.5763 180.087 28.4648 180.138 28.3964C180.19 28.3287 180.309 28.0217 180.402 27.7153C180.605 27.0521 181.457 24.71 182.338 22.3865C182.688 21.466 183.202 20.112 183.481 19.3759C183.761 18.6406 183.959 17.9915 183.922 17.9342C183.886 17.8762 183.942 17.7602 184.047 17.6762C184.151 17.5922 184.237 17.4123 184.237 17.2769C184.237 17.1409 184.437 16.5089 184.683 15.8724C185.327 14.2017 185.451 14.3318 183.224 14.3318C181.07 14.3318 180.999 14.3578 180.849 15.2226C180.799 15.5103 180.627 16.0828 180.468 16.4947C180.307 16.9066 180.17 17.2851 180.16 17.3357C180.151 17.3855 180.117 17.497 180.084 17.5833C180.051 17.6688 179.857 18.213 179.653 18.793C179.449 19.3722 179.079 20.3901 178.831 21.0541C178.583 21.7188 178.412 22.2623 178.451 22.2623C178.49 22.2623 178.465 22.3322 178.395 22.4177C178.281 22.5582 177.806 23.82 177.794 24.0178C177.791 24.0639 177.75 24.139 177.701 24.1851C177.654 24.2319 177.645 24.3479 177.684 24.4431C177.721 24.539 177.701 24.617 177.639 24.617C177.51 24.617 177.142 25.7138 177.193 25.9495C177.21 26.0342 177.165 26.1041 177.092 26.1041C177.019 26.1041 176.959 26.2298 176.959 26.3829C176.959 26.5361 176.837 26.9681 176.688 27.3436C176.539 27.7183 175.903 29.4745 175.274 31.2471C174.645 33.0189 173.931 35.0265 173.687 35.7083C173.443 36.3894 173.218 37.1284 173.187 37.3507C173.156 37.5723 173.072 37.8511 173.001 37.9701C172.93 38.0891 172.448 39.385 171.93 40.8505C170.647 44.4767 170.717 44.3414 170.517 43.577C170.453 43.3339 170.015 42.1279 169.955 42.0283C169.914 41.9599 169.868 41.8483 169.854 41.7799C169.84 41.7123 169.655 41.168 169.443 40.5717C169.232 39.9754 169.082 39.4876 169.109 39.4876C169.137 39.4876 169.07 39.2505 168.961 38.9612C168.851 38.6712 168.428 37.5143 168.02 36.3893C167.612 35.2651 166.951 33.4524 166.55 32.3624C166.149 31.2716 165.577 29.6262 165.278 28.7065C164.979 27.786 164.666 26.8662 164.582 26.6618C164.498 26.4573 164.434 26.29 164.44 26.29C164.462 26.29 163.572 23.8051 163.176 22.7582C162.769 21.6801 162.72 21.5485 162.653 21.3329C162.631 21.2652 162.417 20.6793 162.176 20.0317C161.936 19.3841 161.692 18.6316 161.634 18.3588C161.576 18.0866 161.458 17.6963 161.371 17.4918C161.283 17.2873 161.203 17.0918 161.191 17.0576C161.178 17.0234 161.131 16.8985 161.084 16.7788C160.869 16.2293 160.83 16.1133 160.787 15.8962C160.762 15.7683 160.66 15.4895 160.561 15.2761C160.462 15.0634 160.344 14.7638 160.299 14.6106C160.201 14.2805 157.834 14.172 157.592 14.4865C157.47 14.6441 156.809 16.384 155.816 19.1648C155.512 20.0168 155.147 21.0146 155.007 21.3827C154.867 21.75 154.779 22.0943 154.812 22.1463C154.845 22.1983 154.826 22.2601 154.77 22.2831C154.714 22.3062 154.317 23.356 153.89 24.617C153.105 26.9354 151.758 30.6671 151.543 31.1229C151.289 31.659 151.046 32.4553 151.106 32.5505C151.141 32.6055 151.126 32.6695 151.073 32.6925C151.02 32.7156 150.538 33.9885 150.002 35.5224C149.465 37.0556 148.761 39.0356 148.437 39.9211C148.112 40.8074 147.63 42.1331 147.364 42.8677L146.88 44.2031L146.662 43.6112C146.541 43.2856 146.443 42.9064 146.444 42.7681C146.444 42.6298 146.355 42.3926 146.246 42.2417C146.136 42.09 146.076 41.9658 146.113 41.9658C146.149 41.9658 145.832 41.0044 145.407 39.8282C144.982 38.6526 144.418 37.0771 144.153 36.3276C143.889 35.5782 143.439 34.3231 143.154 33.5394C142.87 32.7557 142.537 31.7795 142.416 31.3705C142.295 30.9616 142.139 30.5578 142.07 30.4723C142.001 30.3868 141.976 30.3177 142.016 30.3177C142.055 30.3177 141.886 29.7734 141.641 29.1095C141.395 28.4447 141.118 27.6782 141.026 27.4053C140.934 27.1324 140.784 26.742 140.695 26.5376C140.605 26.3331 140.518 26.1041 140.502 26.029C140.453 25.8089 139.805 23.9598 139.68 23.6876C139.508 23.3092 138.921 21.5017 138.845 21.1113C138.807 20.921 138.735 20.7901 138.684 20.8198C138.633 20.8503 138.586 20.7016 138.577 20.4897C138.569 20.2786 138.497 20.0837 138.416 20.0577C138.337 20.0317 138.302 19.9626 138.339 19.9038C138.377 19.8451 138.007 18.7209 137.519 17.4056C137.031 16.0895 136.592 14.8597 136.544 14.6723L136.458 14.3318H134.429C132.928 14.3318 132.4 14.3705 132.4 14.4813ZM247.308 15.9423V17.5535H257.845H268.383L268.146 17.8941C268.016 18.0814 267.715 18.5142 267.478 18.8547C267.241 19.1952 266.829 19.7291 266.562 20.0399C266.295 20.3507 266.077 20.6667 266.077 20.7425C266.077 20.8176 266.025 20.8972 265.96 20.9202C265.809 20.9738 264.672 22.4772 264.672 22.6244C264.672 22.6869 264.625 22.756 264.567 22.779C264.476 22.8147 264.103 23.2995 262.492 25.4848C262.321 25.7152 261.766 26.4261 261.257 27.0648C260.748 27.7034 260.331 28.2693 260.331 28.3221C260.331 28.4217 258.339 31.0932 257.996 31.4531C257.888 31.5668 257.832 31.6925 257.874 31.7319C257.914 31.772 257.891 31.8048 257.821 31.8048C257.686 31.8048 257.079 32.5669 256.437 33.5401C256.227 33.8599 255.278 35.1335 254.331 36.3708C253.382 37.6087 252.118 39.2928 251.522 40.1144C250.925 40.936 250.336 41.6974 250.213 41.806C250.09 41.9152 249.99 42.0513 249.99 42.1078C249.99 42.2075 249.727 42.5502 249.374 42.9094C249.281 43.0038 249.24 43.0811 249.283 43.0811C249.326 43.0811 249.299 43.151 249.223 43.2365C249.146 43.3213 248.803 43.7815 248.459 44.2589C248.115 44.7355 247.749 45.2106 247.645 45.3139C246.759 46.1898 246.159 47.2218 246.159 47.8694V48.5342H260.08H274L273.965 46.8917L273.929 45.25L262.98 45.218C256.959 45.2009 252.033 45.1608 252.033 45.1288C252.033 45.047 252.819 43.9421 253.086 43.6507C253.208 43.5168 253.309 43.3651 253.309 43.3146C253.309 43.264 253.382 43.1495 253.471 43.0595C253.703 42.8253 255.776 40.1167 256.062 39.6735C256.361 39.2103 257.206 38.0801 257.682 37.5046C257.88 37.266 258.084 37.0154 258.136 36.947C259.448 35.2094 259.948 34.5283 259.948 34.4792C259.948 34.4458 260.336 33.9164 260.81 33.303C261.284 32.6888 262.074 31.6508 262.566 30.9965C263.057 30.3415 263.535 29.7258 263.628 29.6277C263.721 29.5303 263.769 29.45 263.734 29.45C263.684 29.45 265.939 26.4536 266.626 25.6059C267.123 24.9933 267.481 24.4988 267.481 24.4252C267.481 24.2936 268.409 23.0802 268.596 22.9672C268.688 22.9121 268.73 22.8147 268.689 22.7508C268.648 22.6869 268.668 22.6341 268.733 22.6341C268.798 22.6341 269.017 22.3976 269.219 22.1076C269.421 21.8177 269.621 21.553 269.662 21.5188C269.703 21.4846 270.393 20.5648 271.193 19.4741C271.994 18.384 272.952 17.1015 273.322 16.6241C273.963 15.7966 273.993 15.7252 273.962 15.0753L273.929 14.3935L260.619 14.3623L247.308 14.3303V15.9423ZM31.334 14.879C30.3106 15.1058 29.5698 15.3556 28.7876 15.7378C28.4352 15.9103 28.0047 16.1036 27.8301 16.1683C25.5441 17.0145 22.1773 22.1247 22.4998 24.2587C22.5297 24.4557 22.506 24.617 22.4478 24.617C22.2685 24.617 22.4508 27.2105 22.7143 28.4068C23.1311 30.2961 24.2771 32.7527 25.2829 33.9112C25.4905 34.1498 25.718 34.4123 25.7893 34.4948C25.8598 34.5766 25.918 34.6993 25.918 34.767C25.918 34.8346 26.2918 35.2681 26.7476 35.7313C27.2042 36.1945 27.578 36.6087 27.578 36.6525C27.578 36.6957 27.9365 37.0399 28.3755 37.4169C28.8144 37.7946 29.4901 38.3939 29.8762 38.7493C30.2623 39.1047 31.095 39.8059 31.727 40.307C33.2124 41.4848 33.2032 41.4773 35.3022 43.1525C36.285 43.9377 37.2165 44.6745 37.3713 44.7905C37.5268 44.9072 37.8999 45.2158 38.2017 45.4768C41.6359 48.4509 43.3634 49.2063 45.66 48.7386C47.2029 48.4248 47.3706 48.3178 51.6797 44.8946C52.0114 44.6306 52.5132 44.2328 52.7935 44.0098C53.0747 43.7867 53.6776 43.3079 54.1341 42.945C54.5907 42.5829 55.1944 42.0759 55.4747 41.8179C55.7559 41.5598 56.024 41.3487 56.0707 41.3479C56.5817 41.3398 62.2436 36.1224 63.2464 34.7357C63.5367 34.3342 63.9649 33.7476 64.1978 33.4316C66.2172 30.6954 67.2981 25.9651 66.5236 23.2542C66.4362 22.9478 66.3428 22.5857 66.3167 22.4489C66.2677 22.1902 66.0218 21.5708 65.6196 20.692C65.2213 19.8213 63.192 17.3543 63.0158 17.5253C62.976 17.5639 62.9438 17.5268 62.9438 17.4442C62.9438 17.2583 62.3003 16.6955 62.082 16.6903C61.9946 16.6881 61.9226 16.6286 61.9226 16.5579C61.9226 16.459 61.0647 16.0048 60.6456 15.8821C60.6104 15.8717 60.2373 15.7103 59.816 15.5222C57.7338 14.5958 54.1924 14.4352 52.0014 15.169C49.7845 15.9111 48.8292 16.5579 47.1852 18.4294C45.3735 20.4912 44.1271 20.6474 42.5422 19.0108C42.1944 18.6525 41.495 17.929 40.9863 17.4041C38.9233 15.2731 34.628 14.1496 31.334 14.879ZM115.144 17.245C116.752 17.5446 119.703 18.6763 120.393 19.2577C120.501 19.3491 120.934 19.6666 121.356 19.9633C122.221 20.5737 123.687 22.1039 124.104 22.8318C124.614 23.7226 124.916 24.1828 125.052 24.2743C125.125 24.3241 125.146 24.3665 125.098 24.3672C125.049 24.3687 125.155 24.6899 125.335 25.0818C126.659 27.9726 127.09 31.9839 126.386 34.874C126.049 36.2592 125.71 37.2489 125.302 38.0318C125.063 38.4913 124.91 38.869 124.963 38.8698C125.015 38.8713 124.996 38.9129 124.92 38.9627C124.844 39.0133 124.539 39.4542 124.241 39.9434C123.606 40.9858 122.199 42.4268 121.159 43.0982C120.091 43.7875 119.696 44.557 119.696 45.9489L119.697 47.0196L118.91 46.4121C117.572 45.3786 116.923 45.2217 115.227 45.5243C113.572 45.8195 110.452 45.8136 109.035 45.5124C108.438 45.3853 107.798 45.2626 107.613 45.2388C106.49 45.0961 104.41 44.0648 102.779 42.8417C102.273 42.4625 100.736 41.0215 100.736 40.9264C100.736 40.8788 100.512 40.5457 100.238 40.1858C97.103 36.0667 96.6794 29.2195 99.2618 24.4111C100.176 22.7092 100.519 22.2511 101.949 20.828C102.753 20.028 103.244 19.6852 105.205 18.5521C105.52 18.3699 106.411 18.019 107.184 17.7736C108.407 17.384 109.047 17.2517 110.887 17.0063C111.617 16.9089 114.084 17.0472 115.144 17.245ZM225.951 17.868C226.599 18.039 227.383 18.2852 227.695 18.4145C228.006 18.5439 228.295 18.6175 228.337 18.5766C228.378 18.5365 228.412 18.5684 228.412 18.648C228.412 18.7276 228.524 18.793 228.66 18.793C228.797 18.793 228.944 18.8502 228.99 18.9209C229.034 18.9908 229.314 19.1595 229.612 19.2956C232.373 20.5552 235.234 24.4721 236.079 28.1488C236.158 28.4893 236.252 28.8797 236.288 29.0165C236.705 30.569 236.364 34.2227 235.595 36.4518C235.407 36.9968 235.251 37.4823 235.248 37.5299C235.245 37.5775 235.171 37.6861 235.084 37.7716C234.995 37.8563 234.923 37.9716 234.923 38.0273C234.923 38.0831 234.687 38.5047 234.397 38.9634C234.108 39.4222 233.748 40.0007 233.599 40.249C232.295 42.4194 228.446 44.7942 225.485 45.2544C224.813 45.3593 224.091 45.4745 223.88 45.511C223.669 45.5481 222.75 45.5682 221.837 45.5563C219.34 45.5236 219.232 45.5169 219.3 45.4106C219.334 45.3563 219.201 45.308 219.004 45.3028C218.263 45.2827 217.018 44.9221 215.772 44.3652C208.016 40.9011 205.266 30.8092 210.07 23.4408C210.565 22.6816 210.592 22.6497 211.586 21.5991C214.936 18.0576 220.849 16.5215 225.951 17.868ZM35.2999 17.9892C37.2625 18.3922 38.6537 19.3469 40.1207 21.2957C42.8226 24.887 46.2093 24.7382 49.357 20.8912C54.747 14.3036 65.0045 19.1558 63.2701 27.4729C62.9055 29.2217 61.7893 31.4702 60.713 32.6263C60.641 32.7037 60.3836 33.01 60.1408 33.3082C59.3816 34.2405 56.1673 37.2109 54.8267 38.2192C54.0591 38.7969 52.4825 40.0691 51.6805 40.7576C51.2239 41.1494 50.7995 41.4706 50.7367 41.4706C50.6746 41.4714 50.336 41.7167 49.9852 42.0156C49.6336 42.3153 49.203 42.6766 49.0276 42.8186C48.8522 42.9607 48.5067 43.2454 48.2616 43.4514C45.4586 45.8017 44.1249 45.8931 41.534 43.9153C38.8582 41.8729 37.4617 40.7702 35.8767 39.4475C34.4365 38.2467 33.9662 37.8764 33.875 37.8742C33.6866 37.8697 29.3591 33.8316 28.8543 33.1884C28.6789 32.9646 28.377 32.5966 28.184 32.3698C27.9909 32.1431 27.8331 31.9319 27.8331 31.9007C27.8331 31.8694 27.5451 31.3787 27.1927 30.8099C23.7608 25.2669 26.2727 19.1387 32.493 17.8814C33.0745 17.7647 34.4656 17.8175 35.2999 17.9892ZM190.733 44.047C187.446 45.7132 190.249 50.4896 193.592 48.9193C194.742 48.3787 195.771 46.279 195.087 45.8686C195.015 45.8255 194.989 45.74 195.028 45.679C195.139 45.5043 194.716 44.7927 194.252 44.3741C193.406 43.6112 191.873 43.4685 190.733 44.047Z" fill="white"/>
</svg>
